#N canvas 827 239 527 327 12;
#N canvas 0 22 450 278 (subpatch) 0;
#X text 0 0 plugdatainfo <?xml version="1.0" encoding="UTF-8"?> <plugdatainfo/>;
#X coords 0 1 100 -1 15 15 1 0 0;
#X restore 47 30 graph;
#X obj 519 62 cnv 360 360 185 empty empty audio\ routing 20 12 0 14 #c8c8c8 #5a5a5a 0;
#X obj 291 572 cnv 151 151 163 empty empty DUO\ audio\ R 20 12 0 14 #000000 #ffffff 0;
#X obj 131 572 cnv 151 151 163 empty empty DUO\ audio\ L 20 12 0 14 #000000 #ffffff 0;
#X obj 453 572 cnv 151 151 163 empty empty DUO\ sync\ out 20 12 0 14 #ffffff #5a5a5a 0;
#X msg 923 98 240 125 100 11 247, f 19;
#X obj 923 149 midiout;
#X obj 144 454 tgl 48 0 empty empty empty 17 7 0 10 #e4e4e4 #7bba1e #3ddd2d 0 1;
#X text 201 467 loopback OK, f 12;
#X text 928 75 reboot to bootloader, f 18;
#X obj 542 89 setdsp~;
#X obj 474 381 bng 25 50 10 0 empty empty empty 17 7 0 10 #dcdcdc #000000 #000000;
#X obj 530 454 tgl 49 0 empty empty empty 17 7 0 10 #e4e4e4 #61cc1f #5a5a5a 0 1;
#X text 361 385 MIDI clock received, f 17;
#X text 585 467 BPM within DUO range;
#X text 349 350 sync received, f 12;
#X obj 317 346 bng 25 50 10 0 empty empty empty 17 7 0 10 #dcdcdc #000000 #000000;
#X obj 926 192 midiin;
#X obj 926 248 bng 25 250 50 0 empty empty empty 17 7 0 10 #e4e4e4 #5a5a5a #5a5a5a;
#X obj 967 254 nbx 4 18 -1e+37 1e+37 0 0 empty empty empty 0 -8 0 10 #e4e4e4 #5a5a5a #5a5a5a 0 256;
#X obj 1028 254 nbx 4 18 -1e+37 1e+37 0 0 empty empty empty 0 -8 0 10 #e4e4e4 #5a5a5a #5a5a5a 0 256;
#X obj 979 810 s reset;
#X obj 979 766 bng 25 250 50 0 empty empty empty 17 7 0 10 #e4e4e4 #5a5a5a #5a5a5a;
#X text 1014 768 reset all tests, f 13;
#N canvas 733 172 450 300 keyboard-test 0;
#X obj 413 158 notein;
#X obj 395 412 tgl 38 0 empty empty empty 17 7 0 10 #e4e4e4 #5a5a5a #5a5a5a 0 1;
#X obj 374 199 > 0;
#X obj 398 237 gate;
#X text 156 198 only let through note on messages, f 28;
#X obj 437 412 tgl 38 0 empty empty empty 17 7 0 10 #e4e4e4 #5a5a5a #5a5a5a 0 1;
#X obj 497 412 tgl 38 0 empty empty empty 17 7 0 10 #e4e4e4 #5a5a5a #5a5a5a 0 1;
#X obj 542 412 tgl 38 0 empty empty empty 17 7 0 10 #e4e4e4 #5a5a5a #5a5a5a 0 1;
#X obj 583 412 tgl 38 0 empty empty empty 17 7 0 10 #e4e4e4 #5a5a5a #5a5a5a 0 1;
#X obj 636 412 tgl 38 0 empty empty empty 17 7 0 10 #e4e4e4 #5a5a5a #5a5a5a 0 1;
#X obj 678 412 tgl 38 0 empty empty empty 17 7 0 10 #e4e4e4 #5a5a5a #5a5a5a 0 1;
#X obj 734 412 tgl 38 0 empty empty empty 17 7 0 10 #e4e4e4 #5a5a5a #5a5a5a 0 1;
#X obj 774 412 tgl 38 0 empty empty empty 17 7 0 10 #e4e4e4 #5a5a5a #5a5a5a 0 1;
#X obj 818 412 tgl 38 0 empty empty empty 17 7 0 10 #e4e4e4 #5a5a5a #5a5a5a 0 1;
#X obj 508 189 r reset;
#X obj 874 412 tgl 38 0 empty empty empty 17 7 0 10 #e4e4e4 #5a5a5a #5a5a5a 0 1;
#N canvas 0 22 450 278 (subpatch) 0;
#X text 0 0 plugdatainfo <?xml version="1.0" encoding="UTF-8"?> <plugdatainfo/>;
#X coords 0 1 100 -1 1 1 1;
#X restore 0 0 graph;
#X obj 398 286 pack f 1;
#X obj 340 288 nbx 4 18 -1e+37 1e+37 0 0 empty empty empty 0 -8 0 10 #e4e4e4 #5a5a5a #5a5a5a 0 256;
#X obj 337 412 tgl 38 0 empty empty empty 17 7 0 10 #e4e4e4 #5a5a5a #5a5a5a 0 1;
#X text 226 420 transpose down;
#X text 921 421 transpose up;
#X obj 337 528 expr $f1 && $f2 && $f3 && $f4 && $f5 && $f6 && $f7 && $f8 && $f9 && $f10 && $f11 && $f12, f 82;
#X obj 337 629 tgl 117 0 empty empty empty 17 7 0 10 #e4e4e4 #61ff00 #5a5a5a 0 1;
#X obj 398 342 route 49 51 54 56 58 61 63 66 68 70 48 71, f 63;
#X msg 508 241 49 0 \, 51 0 \, 54 0 \, 56 0 \, 58 0 \, 61 0 \, 63 0 \, 66 0 \, 68 0 \, 70 0 \, 48 0 \, 71 0, f 58;
#X text 468 676 keyboard note pass, f 17;
#X obj 474 645 outlet;
#X connect 0 0 3 1;
#X connect 0 1 2 0;
#X connect 1 0 22 1;
#X connect 2 0 3 0;
#X connect 3 0 17 0;
#X connect 3 0 18 0;
#X connect 5 0 22 2;
#X connect 6 0 22 3;
#X connect 7 0 22 4;
#X connect 8 0 22 5;
#X connect 9 0 22 6;
#X connect 10 0 22 7;
#X connect 11 0 22 8;
#X connect 12 0 22 9;
#X connect 13 0 22 10;
#X connect 14 0 25 0;
#X connect 15 0 22 11;
#X connect 17 0 24 0;
#X connect 19 0 22 0;
#X connect 22 0 23 0;
#X connect 22 0 27 0;
#X connect 24 0 1 0;
#X connect 24 1 5 0;
#X connect 24 2 6 0;
#X connect 24 3 7 0;
#X connect 24 4 8 0;
#X connect 24 5 9 0;
#X connect 24 6 10 0;
#X connect 24 7 11 0;
#X connect 24 8 12 0;
#X connect 24 9 13 0;
#X connect 24 10 19 0;
#X connect 24 11 15 0;
#X connect 25 0 24 0;
#X restore 948 910 pd keyboard-test;
#X floatatom 116 194 7 0 0 0 - - - 36;
#X obj 168 139 metro 1 1 sec;
#X obj 116 167 timer 1 sec;
#X obj 168 104 tgl 25 0 empty empty empty 17 7 0 10 #e4e4e4 #5a5a5a #5a5a5a 0 1;
#X obj 116 74 r reset;
#X obj 948 949 tgl 114 0 empty empty empty 17 7 0 10 #e4e4e4 #7bba1e #3ddd2d 0 1;
#X obj 933 662 keyname;
#X symbolatom 979 691 10 0 0 0 - - - 0;
#X floatatom 933 691 4 0 0 0 - - - 0;
#X obj 317 454 tgl 49 0 empty empty empty 17 7 0 10 #e4e4e4 #78cd2d #5a5a5a 0 1;
#X obj 930 574 sig~;
#X obj 930 539 nbx 4 18 -1e+37 1e+37 0 0 empty empty empty 0 -8 0 10 #e4e4e4 #5a5a5a #5a5a5a 0 256;
#X msg 930 495 1, f 5;
#X msg 979 493 0, f 5;
#X obj 930 372 tgl 25 0 empty empty empty 17 7 0 10 #e4e4e4 #5a5a5a #5a5a5a 0 1;
#X obj 930 454 bng 25 250 50 0 empty empty empty 17 7 0 10 #e4e4e4 #5a5a5a #5a5a5a;
#X obj 979 454 delay 10;
#X text 968 377 generate sync;
#X text 1087 75 reset transpose, f 14;
#X obj 1071 52 r reset;
#X text 374 467 sync and MIDI agree, f 18;
#X obj 930 311 r reset;
#X msg 930 340 1, f 5;
#X obj 466 594 oscope~ 130 130 256 3 128 -1 1 0 0 0 0 90 90 90 228 228 228 200 200 200 0 empty;
#X obj 143 594 oscope~ 130 130 256 3 128 -1 1 0 0 0 0 90 90 90 228 228 228 200 200 200 0 empty;
#X obj 301 594 oscope~ 130 130 256 3 128 -1 1 0 0 0 0 90 90 90 228 228 228 200 200 200 0 empty;
#X obj 605 89 adc~ 3;
#X msg 1071 98 240 125 100 12 247, f 19;
#X obj 605 167 adc~ 4;
#X obj 930 412 metro 300 1 msec;
#N canvas 733 172 450 300 (subpatch) 0;
#X obj 138 517 nbx 5 14 -1e+37 1e+37 0 0 empty empty empty 0 -8 0 10 #dcdcdc #000000 #000000 0 256;
#X msg 75 443 external;
#X obj 75 477 midi.clock;
#X obj 138 556 > 29;
#X text 200 515 BPM, f 6;
#X obj 188 556 < 600;
#X obj 138 595 &&;
#X obj 178 448 r reset;
#X msg 178 481 0, f 5;
#X obj 67 620 outlet;
#X obj 130 620 outlet;
#N canvas 0 22 450 278 (subpatch) 0;
#X text 0 0 plugdatainfo <?xml version="1.0" encoding="UTF-8"?> <plugdatainfo/>;
#X coords 0 1 100 -1 1 1 1;
#X restore 0 0 graph;
#X connect 0 0 3 0;
#X connect 0 0 5 0;
#X connect 1 0 2 0;
#X connect 2 0 9 0;
#X connect 2 1 0 0;
#X connect 3 0 6 0;
#X connect 5 0 6 1;
#X connect 6 0 10 0;
#X connect 7 0 8 0;
#X connect 8 0 0 0;
#X restore 519 339 pd;
#N canvas 733 172 450 300 (subpatch) 0;
#X obj 189 357 noteout;
#X obj 189 232 nbx 4 18 -1e+37 1e+37 0 0 empty empty empty 0 -8 0 10 #e4e4e4 #5a5a5a #5a5a5a 0 256;
#X obj 72 82 notein;
#X obj 72 232 nbx 4 18 -1e+37 1e+37 0 0 empty empty empty 0 -8 0 10 #e4e4e4 #5a5a5a #5a5a5a 0 256;
#X obj 189 295 makenote 80 200;
#X obj 72 264 ==;
#X obj 189 78 bng 25 250 50 0 empty empty empty 17 7 0 10 #e4e4e4 #5a5a5a #5a5a5a;
#X obj 189 117 delay 100;
#X text 221 77 start MIDI loopback, f 17;
#X obj 324 272 mtof;
#X obj 324 299 nbx 8 18 -1e+37 1e+37 0 0 empty empty empty 0 -8 0 10 #e4e4e4 #5a5a5a #5a5a5a 0 256;
#X text 406 298 Hz, f 5;
#X obj 189 177 keyboard 17 43 2 2 0 0 empty empty;
#X obj 122 232 nbx 4 18 -1e+37 1e+37 0 0 empty empty empty 0 -8 0 10 #e4e4e4 #5a5a5a #5a5a5a 0 256;
#X obj 142 188 0;
#X msg 189 147 57, f 5;
#X obj 189 12 r reset;
#X obj 189 45 delay 100;
#X obj 64 368 outlet;
#N canvas 0 22 450 278 (subpatch) 0;
#X text 0 0 plugdatainfo <?xml version="1.0" encoding="UTF-8"?> <plugdatainfo/>;
#X coords 0 1 100 -1 1 1 1;
#X restore 0 0 graph;
#X connect 1 0 4 0;
#X connect 1 0 5 1;
#X connect 1 0 9 0;
#X connect 2 0 3 0;
#X connect 2 1 13 0;
#X connect 3 0 5 0;
#X connect 4 0 0 0;
#X connect 4 1 0 1;
#X connect 5 0 18 0;
#X connect 6 0 7 0;
#X connect 6 0 14 0;
#X connect 7 0 15 0;
#X connect 9 0 10 0;
#X connect 12 0 1 0;
#X connect 14 0 3 0;
#X connect 15 0 12 0;
#X connect 16 0 17 0;
#X connect 17 0 6 0;
#X restore 144 414 pd;
#N canvas 733 172 450 300 tempo 0;
#X obj 660 434 count;
#X msg 660 393 reset, f 7;
#X obj 660 503 nbx 4 18 -1e+37 1e+37 0 0 empty empty empty 0 -8 0 10 #e4e4e4 #5a5a5a #5a5a5a 0 256;
#X obj 660 468 prepend set;
#X obj 660 542 nbx 4 18 -1e+37 1e+37 0 0 empty empty empty 0 -8 0 10 #e4e4e4 #5a5a5a #5a5a5a 0 256;
#X obj 660 585 == 11;
#X obj 799 248 r reset;
#X msg 799 468 0, f 5;
#X obj 743 248 inlet;
#X obj 548 263 inlet;
#X obj 652 628 outlet;
#N canvas 0 22 450 278 (subpatch) 0;
#X text 0 0 plugdatainfo <?xml version="1.0" encoding="UTF-8"?> <plugdatainfo/>;
#X coords 0 1 100 -1 416 44 1 0 0;
#X restore 479 224 graph;
#X obj 523 305 bng 25 250 50 0 empty empty empty 17 7 0 10 #e4e4e4 #5a5a5a #5a5a5a;
#X obj 743 336 bng 25 250 50 0 empty empty empty 17 7 0 10 #e4e4e4 #5a5a5a #5a5a5a;
#X connect 0 0 3 0;
#X connect 1 0 0 0;
#X connect 2 0 4 0;
#X connect 3 0 2 0;
#X connect 4 0 5 0;
#X connect 5 0 10 0;
#X connect 6 0 7 0;
#X connect 7 0 2 0;
#X connect 8 0 0 0;
#X connect 8 0 13 0;
#X connect 9 0 2 0;
#X connect 9 0 12 0;
#X connect 12 0 1 0;
#X restore 317 416 pd tempo;
#X f 26;
#X obj 605 140 send~ audio_l;
#X obj 143 545 receive~ audio_l;
#N canvas 733 172 450 300 synth_controls 0;
#X obj 1193 34 ctlin 7;
#X obj 1198 97 vsl 17 128 0 127 0 0 empty empty empty 0 -9 0 10 #e4e4e4 #5a5a5a #5a5a5a 0 1;
#X obj 801 35 ctlin 65;
#X text 1194 242 AMP, f 6;
#X obj 990 97 vsl 17 128 0 127 0 0 empty empty empty 0 -9 0 10 #e4e4e4 #5a5a5a #5a5a5a 0 1;
#X text 985 245 WAVE, f 7;
#X obj 985 34 ctlin 70;
#X text 1080 293 RES, f 6;
#X obj 1015 294 ctlin 71;
#X obj 1129 97 vsl 17 128 0 127 0 0 empty empty empty 0 -9 0 10 #e4e4e4 #5a5a5a #5a5a5a 0 1;
#X obj 1124 34 ctlin 72;
#X text 1124 247 RELEASE, f 9;
#X obj 1060 97 vsl 17 128 0 127 0 0 empty empty empty 0 -9 0 10 #e4e4e4 #5a5a5a #5a5a5a 0 1;
#X obj 1055 34 ctlin 74;
#X text 1055 247 FILTER, f 7;
#X obj 801 78 > 63;
#X obj 801 122 tgl 25 0 empty empty empty 17 7 0 10 #e4e4e4 #5a5a5a #5a5a5a 0 1;
#X obj 914 97 vsl 17 128 0 127 0 0 empty empty empty 0 -9 0 10 #e4e4e4 #5a5a5a #5a5a5a 0 1;
#X obj 909 34 ctlin 94;
#X text 890 242 DETUNE, f 9;
#X obj 1288 77 > 63;
#X obj 1288 121 tgl 25 0 empty empty empty 17 7 0 10 #e4e4e4 #5a5a5a #5a5a5a 0 1;
#X obj 1288 34 ctlin 81;
#X text 1283 158 CRUSH, f 8;
#X text 796 312 SLIDE, f 7;
#X obj 801 232 > 63;
#X obj 801 276 tgl 25 0 empty empty empty 17 7 0 10 #e4e4e4 #5a5a5a #5a5a5a 0 1;
#X obj 801 189 ctlin 80;
#X obj 1016 322 hsl 128 17 0 127 0 0 empty empty empty -2 -8 0 10 #e4e4e4 #5a5a5a #5a5a5a 0 1;
#X text 796 159 GLIDE, f 7;
#N canvas 0 22 450 278 (subpatch) 0;
#X text 0 0 plugdatainfo <?xml version="1.0" encoding="UTF-8"?> <plugdatainfo/>;
#X coords 0 1 100 -1 1 1 1;
#X restore 0 0 graph;
#X connect 0 0 1 0;
#X connect 2 0 15 0;
#X connect 6 0 4 0;
#X connect 8 0 28 0;
#X connect 10 0 9 0;
#X connect 13 0 12 0;
#X connect 15 0 16 0;
#X connect 18 0 17 0;
#X connect 20 0 21 0;
#X connect 22 0 20 0;
#X connect 25 0 26 0;
#X connect 27 0 25 0;
#X restore 948 862 pd synth_controls;
#X obj 748 150 send~ sync_out;
#X obj 466 545 receive~ sync_out;
#X obj 301 545 receive~ audio_r;
#X obj 605 219 send~ audio_r;
#X obj 317 277 receive~ sync_out;
#X obj 748 183 receive~ sync_in;
#X obj 930 618 send~ sync_in;
#X obj 116 104 bng 25 250 50 0 empty empty empty 17 7 0 10 #e4e4e4 #5a5a5a #5a5a5a;
#X obj 116 272 togedge;
#X obj 116 304 s reset;
#X obj 116 245 > 60;
#N canvas 733 172 450 300 analog-to-sync 0;
#X obj 108 148 peak~;
#X obj 108 189 nbx 15 23 -1e+37 1e+37 0 0 empty empty empty 0 -8 0 10 #e4e4e4 #5a5a5a #5a5a5a 0 256;
#X msg 139 105 linear, f 7;
#X obj 108 248 >=;
#X obj 263 189 nbx 4 18 -1e+37 1e+37 0 0 empty empty empty 0 -8 0 10 #e4e4e4 #5a5a5a #5a5a5a 0 256;
#X text 221 162 sync threshold;
#X obj 108 283 togedge;
#X obj 57 118 vu~;
#X obj 266 90 loadbang;
#X msg 261 133 0.04, f 5;
#X obj 108 316 outlet;
#N canvas 0 22 450 278 (subpatch) 0;
#X text 0 0 plugdatainfo <?xml version="1.0" encoding="UTF-8"?> <plugdatainfo/>;
#X coords 0 1 100 -1 1 1 1;
#X restore 0 0 graph;
#X obj 62 189 vu 20 120 empty empty -1 -8 0 10 #e4e4e4 #5a5a5a 1 0;
#X obj 108 36 inlet~;
#X connect 0 0 1 0;
#X connect 1 0 3 0;
#X connect 2 0 0 0;
#X connect 3 0 6 0;
#X connect 4 0 3 1;
#X connect 6 0 10 0;
#X connect 7 0 12 0;
#X connect 7 1 12 1;
#X connect 8 0 9 0;
#X connect 9 0 4 0;
#X connect 13 0 7 0;
#X connect 13 0 0 0;
#X restore 317 313 pd analog-to-sync;
#X obj 605 193 *~ 8;
#X obj 605 116 *~ 8;
#X obj 168 74 loadbang;
#X obj 748 89 adc~ 1;
#X obj 748 120 *~ 8;
#X obj 979 722 match r;
#X obj 748 213 dac~ 1;
#X connect 5 0 6 0;
#X connect 11 0 57 1;
#X connect 16 0 57 0;
#X connect 17 0 18 0;
#X connect 17 0 19 0;
#X connect 17 1 20 0;
#X connect 22 0 21 0;
#X connect 24 0 30 0;
#X connect 25 0 71 0;
#X connect 26 0 27 1;
#X connect 27 0 25 0;
#X connect 28 0 26 0;
#X connect 29 0 68 0;
#X connect 31 0 33 0;
#X connect 31 1 32 0;
#X connect 32 0 78 0;
#X connect 35 0 67 0;
#X connect 36 0 35 0;
#X connect 37 0 36 0;
#X connect 38 0 36 0;
#X connect 39 0 54 0;
#X connect 40 0 37 0;
#X connect 41 0 38 0;
#X connect 44 0 52 0;
#X connect 46 0 47 0;
#X connect 47 0 39 0;
#X connect 51 0 74 0;
#X connect 52 0 6 0;
#X connect 53 0 73 0;
#X connect 54 0 40 0;
#X connect 54 0 41 0;
#X connect 55 0 11 0;
#X connect 55 1 12 0;
#X connect 56 0 7 0;
#X connect 57 0 34 0;
#X connect 59 0 49 0;
#X connect 62 0 48 0;
#X connect 63 0 50 0;
#X connect 65 0 72 0;
#X connect 66 0 79 0;
#X connect 68 0 27 0;
#X connect 69 0 70 0;
#X connect 71 0 69 0;
#X connect 72 0 16 0;
#X connect 73 0 64 0;
#X connect 74 0 58 0;
#X connect 75 0 28 0;
#X connect 76 0 77 0;
#X connect 77 0 61 0;
#X connect 78 0 22 0;
