#N canvas 827 239 527 327 12;
#N canvas 0 22 450 278 (subpatch) 0;
#X text 0 0 plugdatainfo <?xml version="1.0" encoding="UTF-8"?> <plugdatainfo/>;
#X coords 0 1 100 -1 1 1 1;
#X restore 0 0 graph;
#X obj 301 625 noteout;
#X obj 301 469 nbx 4 18 -1e+37 1e+37 0 0 empty empty empty 0 -8 0 10 #e4e4e4 #5a5a5a #5a5a5a 0 256;
#X obj 184 350 notein;
#X obj 184 469 nbx 4 18 -1e+37 1e+37 0 0 empty empty empty 0 -8 0 10 #e4e4e4 #5a5a5a #5a5a5a 0 256;
#X msg 42 112 240 125 100 11 247, f 19;
#X obj 42 163 midiout;
#X obj 301 514 makenote 80 200;
#X obj 184 514 ==;
#X obj 301 268 bng 25 250 50 0 empty empty empty 17 7 0 10 #e4e4e4 #5a5a5a #5a5a5a;
#X obj 184 563 tgl 76 0 empty empty empty 17 7 0 10 #e4e4e4 #7bba1e #3ddd2d 0 1;
#X obj 301 318 delay 100;
#X text 334 272 start MIDI loopback, f 17;
#X text 99 590 loopback OK, f 12;
#X text 47 89 reboot to bootloader, f 18;
#X obj 551 763 setdsp~;
#X obj 278 886 bng 50 50 10 0 empty empty empty 17 7 0 10 #dcdcdc #000000 #000000;
#X obj 341 775 nbx 5 14 -1e+37 1e+37 0 0 empty empty empty 0 -8 0 10 #dcdcdc #000000 #000000 0 256;
#X msg 278 701 external;
#X obj 278 735 midi.clock;
#X obj 341 814 > 29;
#X obj 341 887 tgl 49 0 empty empty empty 17 7 0 10 #e4e4e4 #5a5a5a #5a5a5a 0 1;
#X text 403 773 BPM, f 6;
#X text 148 900 MIDI clock received, f 17;
#X obj 391 814 < 600;
#X obj 341 853 &&;
#X text 405 903 BPM within DUO range;
#X obj 666 718 peak~;
#X obj 666 759 nbx 15 23 -1e+37 1e+37 0 0 empty empty empty 0 -8 0 10 #e4e4e4 #5a5a5a #5a5a5a 0 256;
#X msg 697 675 linear, f 7;
#X obj 666 818 >=;
#X obj 821 759 nbx 4 18 -1e+37 1e+37 0 0 empty empty empty 0 -8 0 10 #e4e4e4 #5a5a5a #5a5a5a 0 256;
#X text 725 908 sync received, f 12;
#X text 779 732 sync threshold;
#X obj 666 853 togedge;
#X obj 666 894 bng 50 50 10 0 empty empty empty 17 7 0 10 #dcdcdc #000000 #000000;
#X obj 610 739 vu 20 120 empty empty -1 -8 0 10 #e4e4e4 #5a5a5a 1 0;
#X obj 605 688 vu~;
#X obj 436 514 mtof;
#X obj 436 567 nbx 8 18 -1e+37 1e+37 0 0 empty empty empty 0 -8 0 10 #e4e4e4 #5a5a5a #5a5a5a 0 256;
#X text 518 566 Hz, f 5;
#X obj 301 406 keyboard 17 43 2 2 0 0 empty empty;
#X obj 235 469 nbx 4 18 -1e+37 1e+37 0 0 empty empty empty 0 -8 0 10 #e4e4e4 #5a5a5a #5a5a5a 0 256;
#X obj 45 206 midiin;
#X obj 45 262 bng 25 250 50 0 empty empty empty 17 7 0 10 #e4e4e4 #5a5a5a #5a5a5a;
#X obj 254 416 0;
#X obj 86 268 nbx 4 18 -1e+37 1e+37 0 0 empty empty empty 0 -8 0 10 #e4e4e4 #5a5a5a #5a5a5a 0 256;
#X obj 147 268 nbx 4 18 -1e+37 1e+37 0 0 empty empty empty 0 -8 0 10 #e4e4e4 #5a5a5a #5a5a5a 0 256;
#X obj 1433 129 ctlin 7;
#X obj 1438 192 vsl 17 128 0 127 0 0 empty empty empty 0 -9 0 10 #e4e4e4 #5a5a5a #5a5a5a 0 1;
#X obj 1041 130 ctlin 65;
#X text 1434 337 AMP, f 6;
#X obj 1230 192 vsl 17 128 0 127 0 0 empty empty empty 0 -9 0 10 #e4e4e4 #5a5a5a #5a5a5a 0 1;
#X text 1225 340 WAVE, f 7;
#X obj 1225 129 ctlin 70;
#X text 1297 441 RES, f 6;
#X obj 1255 389 ctlin 71;
#X obj 1369 192 vsl 17 128 0 127 0 0 empty empty empty 0 -9 0 10 #e4e4e4 #5a5a5a #5a5a5a 0 1;
#X obj 1364 129 ctlin 72;
#X text 1364 342 RELEASE, f 9;
#X obj 1300 192 vsl 17 128 0 127 0 0 empty empty empty 0 -9 0 10 #e4e4e4 #5a5a5a #5a5a5a 0 1;
#X obj 1295 129 ctlin 74;
#X text 1295 342 FILTER, f 7;
#X obj 1041 173 > 63;
#X obj 1041 217 tgl 25 0 empty empty empty 17 7 0 10 #e4e4e4 #5a5a5a #5a5a5a 0 1;
#X obj 1154 192 vsl 17 128 0 127 0 0 empty empty empty 0 -9 0 10 #e4e4e4 #5a5a5a #5a5a5a 0 1;
#X obj 1149 129 ctlin 94;
#X text 1130 337 DETUNE, f 9;
#X obj 1528 172 > 63;
#X obj 1528 216 tgl 25 0 empty empty empty 17 7 0 10 #e4e4e4 #5a5a5a #5a5a5a 0 1;
#X obj 1528 129 ctlin 81;
#X text 1523 253 CRUSH, f 8;
#X text 1028 415 SLIDE, f 7;
#X obj 1033 335 > 63;
#X obj 1033 379 tgl 25 0 empty empty empty 17 7 0 10 #e4e4e4 #5a5a5a #5a5a5a 0 1;
#X obj 1033 292 ctlin 80;
#X obj 1256 417 hsl 128 17 0 127 0 0 empty empty empty -2 -8 0 10 #e4e4e4 #5a5a5a #5a5a5a 0 1;
#X obj 397 181 s reset;
#X obj 397 137 bng 25 250 50 0 empty empty empty 17 7 0 10 #e4e4e4 #5a5a5a #5a5a5a;
#X text 432 139 reset all tests, f 13;
#N canvas 733 172 450 300 keyboard-test 1;
#X obj 413 158 notein;
#X obj 395 412 tgl 38 0 empty empty empty 17 7 0 10 #e4e4e4 #5a5a5a #5a5a5a 0 1;
#X obj 374 199 > 0;
#X obj 398 237 gate;
#X text 156 198 only let through note on messages, f 28;
#X obj 437 412 tgl 38 0 empty empty empty 17 7 0 10 #e4e4e4 #5a5a5a #5a5a5a 0 1;
#X obj 497 412 tgl 38 0 empty empty empty 17 7 0 10 #e4e4e4 #5a5a5a #5a5a5a 0 1;
#X obj 542 412 tgl 38 0 empty empty empty 17 7 0 10 #e4e4e4 #5a5a5a #5a5a5a 0 1;
#X obj 583 412 tgl 38 0 empty empty empty 17 7 0 10 #e4e4e4 #5a5a5a #5a5a5a 0 1;
#X obj 636 412 tgl 38 0 empty empty empty 17 7 0 10 #e4e4e4 #5a5a5a #5a5a5a 0 1;
#X obj 678 412 tgl 38 0 empty empty empty 17 7 0 10 #e4e4e4 #5a5a5a #5a5a5a 0 1;
#X obj 734 412 tgl 38 0 empty empty empty 17 7 0 10 #e4e4e4 #5a5a5a #5a5a5a 0 1;
#X obj 774 412 tgl 38 0 empty empty empty 17 7 0 10 #e4e4e4 #5a5a5a #5a5a5a 0 1;
#X obj 818 412 tgl 38 0 empty empty empty 17 7 0 10 #e4e4e4 #5a5a5a #5a5a5a 0 1;
#X obj 508 189 r reset;
#X obj 874 412 tgl 38 0 empty empty empty 17 7 0 10 #e4e4e4 #5a5a5a #5a5a5a 0 1;
#N canvas 0 22 450 278 (subpatch) 0;
#X text 0 0 plugdatainfo <?xml version="1.0" encoding="UTF-8"?> <plugdatainfo/>;
#X coords 0 1 100 -1 1 1 1;
#X restore 0 0 graph;
#X obj 398 286 pack f 1;
#X obj 340 288 nbx 4 18 -1e+37 1e+37 0 0 empty empty empty 0 -8 0 10 #e4e4e4 #5a5a5a #5a5a5a 0 256;
#X obj 337 412 tgl 38 0 empty empty empty 17 7 0 10 #e4e4e4 #5a5a5a #5a5a5a 0 1;
#X text 226 420 transpose down;
#X text 921 421 transpose up;
#X obj 337 528 expr $f1 && $f2 && $f3 && $f4 && $f5 && $f6 && $f7 && $f8 && $f9 && $f10 && $f11 && $f12, f 82;
#X obj 337 629 tgl 117 0 empty empty empty 17 7 0 10 #e4e4e4 #61ff00 #5a5a5a 0 1;
#X obj 398 342 route 49 51 54 56 58 61 63 66 68 70 48 71, f 63;
#X msg 508 241 49 0 \, 51 0 \, 54 0 \, 56 0 \, 58 0 \, 61 0 \, 63 0 \, 66 0 \, 68 0 \, 70 0 \, 48 0 \, 71 0, f 58;
#X text 468 676 keyboard note pass, f 17;
#X obj 474 645 outlet;
#X connect 0 0 3 1;
#X connect 0 1 2 0;
#X connect 1 0 22 1;
#X connect 2 0 3 0;
#X connect 3 0 17 0;
#X connect 3 0 18 0;
#X connect 5 0 22 2;
#X connect 6 0 22 3;
#X connect 7 0 22 4;
#X connect 8 0 22 5;
#X connect 9 0 22 6;
#X connect 10 0 22 7;
#X connect 11 0 22 8;
#X connect 12 0 22 9;
#X connect 13 0 22 10;
#X connect 14 0 25 0;
#X connect 15 0 22 11;
#X connect 17 0 24 0;
#X connect 19 0 22 0;
#X connect 22 0 23 0;
#X connect 22 0 27 0;
#X connect 24 0 1 0;
#X connect 24 1 5 0;
#X connect 24 2 6 0;
#X connect 24 3 7 0;
#X connect 24 4 8 0;
#X connect 24 5 9 0;
#X connect 24 6 10 0;
#X connect 24 7 11 0;
#X connect 24 8 12 0;
#X connect 24 9 13 0;
#X connect 24 10 19 0;
#X connect 24 11 15 0;
#X connect 25 0 24 0;
#X restore 641 412 pd keyboard-test;
#X floatatom 641 305 20 0 0 0 - - - 36;
#X obj 645 192 bng 19 250 50 0 empty empty empty 17 7 0 10 #dfdfdf #000000 #000000;
#X obj 697 222 bng 19 250 50 0 empty empty empty 17 7 0 10 #dfdfdf #000000 #000000;
#X obj 693 185 metro 1 1 sec;
#X obj 641 255 timer 1 sec;
#X obj 693 143 tgl 25 0 empty empty empty 17 7 0 10 #e4e4e4 #5a5a5a #5a5a5a 0 1;
#X msg 693 101 1, f 5;
#X obj 641 51 r reset;
#X obj 641 451 tgl 114 0 empty empty empty 17 7 0 10 #e4e4e4 #7bba1e #3ddd2d 0 1;
#X obj 351 33 keyname;
#X symbolatom 397 62 10 0 0 0 - - - 0;
#X floatatom 351 62 4 0 0 0 - - - 0;
#X obj 666 636 adc~ 2;
#X obj 967 693 count;
#X msg 967 652 reset, f 7;
#X obj 967 762 nbx 4 18 -1e+37 1e+37 0 0 empty empty empty 0 -8 0 10 #e4e4e4 #5a5a5a #5a5a5a 0 256;
#X obj 967 727 prepend set;
#X obj 967 801 nbx 4 18 -1e+37 1e+37 0 0 empty empty empty 0 -8 0 10 #e4e4e4 #5a5a5a #5a5a5a 0 256;
#X obj 967 844 == 11;
#X obj 967 895 tgl 49 0 empty empty empty 17 7 0 10 #e4e4e4 #5a5a5a #5a5a5a 0 1;
#X obj 397 93 match R;
#X obj 22 894 sig~;
#X obj 22 859 nbx 4 18 -1e+37 1e+37 0 0 empty empty empty 0 -8 0 10 #e4e4e4 #5a5a5a #5a5a5a 0 256;
#X msg 22 815 1, f 5;
#X msg 71 813 0, f 5;
#X obj 22 692 tgl 25 0 empty empty empty 17 7 0 10 #e4e4e4 #5a5a5a #5a5a5a 0 1;
#X obj 22 774 bng 25 250 50 0 empty empty empty 17 7 0 10 #e4e4e4 #5a5a5a #5a5a5a;
#X obj 71 774 delay 10;
#X obj 22 732 metro 200 1 msec;
#X text 60 697 generate sync;
#X obj 22 929 dac~ 1;
#X msg 301 365 57, f 5;
#X text 197 89 reset transpose, f 14;
#X obj 181 66 r reset;
#X obj 301 184 r reset;
#X obj 301 222 delay 100;
#X text 1036 254 GLIDE, f 7;
#X obj 1105 718 r reset;
#X msg 1106 762 0, f 5;
#X text 1022 908 sync and MIDI agree, f 18;
#X obj 22 631 r reset;
#X msg 22 660 1, f 5;
#X obj 381 706 r reset;
#X msg 381 739 0, f 5;
#X obj 1299 598 oscope~ 130 130 256 3 128 -1 1 0 0 0 0 90 90 90 228 228 228 200 200 200 0 empty;
#X obj 1299 557 adc~ 1;
#X obj 1487 597 oscope~ 130 130 256 3 128 -1 1 0 0 0 0 90 90 90 228 228 228 200 200 200 0 empty;
#X obj 1487 556 adc~ 2;
#X obj 1301 797 oscope~ 130 130 256 3 128 -1 1 0 0 0 0 90 90 90 228 228 228 200 200 200 0 empty;
#X obj 1489 796 oscope~ 130 130 256 3 128 -1 1 0 0 0 0 90 90 90 228 228 228 200 200 200 0 empty;
#X obj 1301 762 adc~ 3;
#X msg 181 112 240 125 100 12 247, f 19;
#X obj 1029 506 pdcontrol;
#X obj 1489 761 adc~ 4;
#X obj 824 660 loadbang;
#X msg 824 701 0.04, f 5;
#X connect 2 0 7 0;
#X connect 2 0 8 1;
#X connect 2 0 38 0;
#X connect 3 0 4 0;
#X connect 3 1 42 0;
#X connect 4 0 8 0;
#X connect 5 0 6 0;
#X connect 7 0 1 0;
#X connect 7 1 1 1;
#X connect 8 0 10 0;
#X connect 9 0 11 0;
#X connect 9 0 45 0;
#X connect 11 0 112 0;
#X connect 16 0 94 0;
#X connect 17 0 20 0;
#X connect 17 0 24 0;
#X connect 18 0 19 0;
#X connect 19 0 16 0;
#X connect 19 1 17 0;
#X connect 20 0 25 0;
#X connect 24 0 25 1;
#X connect 25 0 21 0;
#X connect 27 0 28 0;
#X connect 28 0 30 0;
#X connect 29 0 27 0;
#X connect 30 0 34 0;
#X connect 31 0 30 1;
#X connect 34 0 35 0;
#X connect 35 0 95 0;
#X connect 35 0 96 0;
#X connect 37 0 36 0;
#X connect 37 1 36 1;
#X connect 38 0 39 0;
#X connect 41 0 2 0;
#X connect 43 0 44 0;
#X connect 43 0 46 0;
#X connect 43 1 47 0;
#X connect 45 0 4 0;
#X connect 48 0 49 0;
#X connect 50 0 63 0;
#X connect 54 0 52 0;
#X connect 56 0 76 0;
#X connect 58 0 57 0;
#X connect 61 0 60 0;
#X connect 63 0 64 0;
#X connect 66 0 65 0;
#X connect 68 0 69 0;
#X connect 70 0 68 0;
#X connect 73 0 74 0;
#X connect 75 0 73 0;
#X connect 78 0 77 0;
#X connect 80 0 89 0;
#X connect 82 0 85 0;
#X connect 83 0 85 1;
#X connect 84 0 83 0;
#X connect 85 0 81 0;
#X connect 86 0 84 0;
#X connect 87 0 86 0;
#X connect 88 0 82 0;
#X connect 88 0 87 0;
#X connect 90 0 92 0;
#X connect 90 1 91 0;
#X connect 91 0 101 0;
#X connect 93 0 27 0;
#X connect 93 0 37 0;
#X connect 94 0 97 0;
#X connect 95 0 94 0;
#X connect 96 0 98 0;
#X connect 97 0 96 0;
#X connect 98 0 99 0;
#X connect 99 0 100 0;
#X connect 101 0 78 0;
#X connect 102 0 111 0;
#X connect 103 0 102 0;
#X connect 104 0 103 0;
#X connect 105 0 103 0;
#X connect 106 0 109 0;
#X connect 107 0 104 0;
#X connect 108 0 105 0;
#X connect 109 0 107 0;
#X connect 109 0 108 0;
#X connect 112 0 41 0;
#X connect 114 0 132 0;
#X connect 115 0 116 0;
#X connect 116 0 9 0;
#X connect 118 0 119 0;
#X connect 119 0 96 0;
#X connect 121 0 122 0;
#X connect 122 0 106 0;
#X connect 123 0 124 0;
#X connect 124 0 17 0;
#X connect 126 0 125 0;
#X connect 128 0 127 0;
#X connect 131 0 129 0;
#X connect 132 0 6 0;
#X connect 134 0 130 0;
#X connect 135 0 136 0;
#X connect 136 0 31 0;
