#N canvas 733 172 450 300 keyboard-test 1;
#X obj 413 158 notein;
#X obj 395 412 tgl 38 0 empty empty empty 17 7 0 10 #e4e4e4 #5a5a5a #5a5a5a 0 1;
#X obj 374 199 > 0;
#X obj 398 237 gate;
#X text 156 198 only let through note on messages, f 28;
#X obj 437 412 tgl 38 0 empty empty empty 17 7 0 10 #e4e4e4 #5a5a5a #5a5a5a 0 1;
#X obj 497 412 tgl 38 0 empty empty empty 17 7 0 10 #e4e4e4 #5a5a5a #5a5a5a 0 1;
#X obj 542 412 tgl 38 0 empty empty empty 17 7 0 10 #e4e4e4 #5a5a5a #5a5a5a 0 1;
#X obj 583 412 tgl 38 0 empty empty empty 17 7 0 10 #e4e4e4 #5a5a5a #5a5a5a 0 1;
#X obj 636 412 tgl 38 0 empty empty empty 17 7 0 10 #e4e4e4 #5a5a5a #5a5a5a 0 1;
#X obj 678 412 tgl 38 0 empty empty empty 17 7 0 10 #e4e4e4 #5a5a5a #5a5a5a 0 1;
#X obj 734 412 tgl 38 0 empty empty empty 17 7 0 10 #e4e4e4 #5a5a5a #5a5a5a 0 1;
#X obj 774 412 tgl 38 0 empty empty empty 17 7 0 10 #e4e4e4 #5a5a5a #5a5a5a 0 1;
#X obj 818 412 tgl 38 0 empty empty empty 17 7 0 10 #e4e4e4 #5a5a5a #5a5a5a 0 1;
#X obj 508 189 r reset;
#X obj 874 412 tgl 38 0 empty empty empty 17 7 0 10 #e4e4e4 #5a5a5a #5a5a5a 0 1;
#N canvas 0 22 450 278 (subpatch) 0;
#X text 0 0 plugdatainfo <?xml version="1.0" encoding="UTF-8"?> <plugdatainfo/>;
#X coords 0 1 100 -1 1 1 1;
#X restore 0 0 graph;
#X obj 398 286 pack f 1;
#X obj 340 288 nbx 4 18 -1e+37 1e+37 0 0 empty empty empty 0 -8 0 10 #e4e4e4 #5a5a5a #5a5a5a 0 256;
#X obj 337 412 tgl 38 0 empty empty empty 17 7 0 10 #e4e4e4 #5a5a5a #5a5a5a 0 1;
#X text 226 420 transpose down;
#X text 921 421 transpose up;
#X obj 337 528 expr $f1 && $f2 && $f3 && $f4 && $f5 && $f6 && $f7 && $f8 && $f9 && $f10 && $f11 && $f12, f 82;
#X obj 337 629 tgl 117 0 empty empty empty 17 7 0 10 #e4e4e4 #61ff00 #5a5a5a 0 1;
#X obj 398 342 route 49 51 54 56 58 61 63 66 68 70 48 71, f 63;
#X msg 508 241 49 0 \, 51 0 \, 54 0 \, 56 0 \, 58 0 \, 61 0 \, 63 0 \, 66 0 \, 68 0 \, 70 0 \, 48 0 \, 71 0, f 58;
#X text 468 676 keyboard note pass, f 17;
#X obj 474 645 outlet;
#X connect 0 0 3 1;
#X connect 0 1 2 0;
#X connect 1 0 22 1;
#X connect 2 0 3 0;
#X connect 3 0 17 0;
#X connect 3 0 18 0;
#X connect 5 0 22 2;
#X connect 6 0 22 3;
#X connect 7 0 22 4;
#X connect 8 0 22 5;
#X connect 9 0 22 6;
#X connect 10 0 22 7;
#X connect 11 0 22 8;
#X connect 12 0 22 9;
#X connect 13 0 22 10;
#X connect 14 0 25 0;
#X connect 15 0 22 11;
#X connect 17 0 24 0;
#X connect 19 0 22 0;
#X connect 22 0 23 0;
#X connect 22 0 27 0;
#X connect 24 0 1 0;
#X connect 24 1 5 0;
#X connect 24 2 6 0;
#X connect 24 3 7 0;
#X connect 24 4 8 0;
#X connect 24 5 9 0;
#X connect 24 6 10 0;
#X connect 24 7 11 0;
#X connect 24 8 12 0;
#X connect 24 9 13 0;
#X connect 24 10 19 0;
#X connect 24 11 15 0;
#X connect 25 0 24 0;
